
        <svg xmlns="http://www.w3.org/2000/svg" xmlns:xlink="http://www.w3.org/1999/xlink" version="1.1" width="3162.1621621621625" height="855.2321824104354" viewBox="0 0 3162.1621621621625 855.2321824104354">
			
			<g transform="scale(8.108108108108109) translate(10, 10)">
				<defs id="SvgjsDefs4341"/><g id="SvgjsG4342" featureKey="HKaMnE-0" transform="matrix(0.8547009183965862,0,0,0.8547009183965862,-1.5213674298049078,11.119657560329976)" fill="#000"><path xmlns="http://www.w3.org/2000/svg" d="M90.7,77.6c0-2.7-2.2-5-5-5s-5,2.2-5,5c0,2.4,1.7,4.3,3.9,4.8V85h-6.3V46.8c0-0.6-0.4-1-1-1h-3.8V14.9c0-0.6-0.4-1-1-1H53.2  c-0.6,0-1,0.4-1,1v12.5h-2.6c-0.6,0-1,0.4-1,1v10.2h-8.5V24.3c0-0.6-0.4-1-1-1H21.8c-0.6,0-1,0.4-1,1V85h-6v-2.7  c2.4-0.4,4.2-2.5,4.2-5c0-2.8-2.3-5.1-5.1-5.1s-5.1,2.3-5.1,5.1c0,2.5,1.7,4.5,4,5V85h-1.7c-0.6,0-1,0.4-1,1s0.4,1,1,1h77.6  c0.6,0,1-0.4,1-1s-0.4-1-1-1h-2v-2.5C88.9,82,90.7,80,90.7,77.6z M10.8,77.3c0-1.7,1.4-3.1,3.1-3.1s3.1,1.4,3.1,3.1  s-1.4,3.1-3.1,3.1S10.8,79,10.8,77.3z M29.5,39.6V85h-6.7V25.3h15.4v13.3h-7.7C29.9,38.6,29.5,39,29.5,39.6z M42,85h-3.8v-4.9  c0-1.1,0.9-2,1.9-2s1.9,0.9,1.9,2V85z M48.6,85H44v-4.9c0-2.2-1.8-4-3.9-4s-3.9,1.8-3.9,4V85h-4.7V40.6h17.2V85z M54.2,15.9h17.3  v29.9h-3.5V28.4c0-0.6-0.4-1-1-1H54.2V15.9z M57.1,46.8V85h-6.5V29.4h15.4v16.4h-7.9C57.6,45.8,57.1,46.2,57.1,46.8z M70,85h-3.8  v-4.9c0-1.1,0.9-2,1.9-2s1.9,0.9,1.9,2V85z M76.3,85H72v-4.9c0-2.2-1.8-4-3.9-4s-3.9,1.8-3.9,4V85h-5.1V47.8h17.2V85z M85.7,80.5  c-1.6,0-3-1.3-3-3c0-1.6,1.3-3,3-3c1.6,0,3,1.3,3,3C88.7,79.2,87.4,80.5,85.7,80.5z"/><path xmlns="http://www.w3.org/2000/svg" d="M72,54.5c0.6,0,1-0.4,1-1v-1.5c0-0.6-0.4-1-1-1s-1,0.4-1,1v1.5C71,54.1,71.4,54.5,72,54.5z"/><path xmlns="http://www.w3.org/2000/svg" d="M67.7,54.5c0.6,0,1-0.4,1-1v-1.5c0-0.6-0.4-1-1-1s-1,0.4-1,1v1.5C66.7,54.1,67.2,54.5,67.7,54.5z"/><path xmlns="http://www.w3.org/2000/svg" d="M63.4,54.5c0.6,0,1-0.4,1-1v-1.5c0-0.6-0.4-1-1-1s-1,0.4-1,1v1.5C62.4,54.1,62.9,54.5,63.4,54.5z"/><path xmlns="http://www.w3.org/2000/svg" d="M72,60.5c0.6,0,1-0.4,1-1V58c0-0.6-0.4-1-1-1s-1,0.4-1,1v1.5C71,60,71.4,60.5,72,60.5z"/><path xmlns="http://www.w3.org/2000/svg" d="M67.7,60.5c0.6,0,1-0.4,1-1V58c0-0.6-0.4-1-1-1s-1,0.4-1,1v1.5C66.7,60,67.2,60.5,67.7,60.5z"/><path xmlns="http://www.w3.org/2000/svg" d="M63.4,60.5c0.6,0,1-0.4,1-1V58c0-0.6-0.4-1-1-1s-1,0.4-1,1v1.5C62.4,60,62.9,60.5,63.4,60.5z"/><path xmlns="http://www.w3.org/2000/svg" d="M72,66.5c0.6,0,1-0.4,1-1V64c0-0.6-0.4-1-1-1s-1,0.4-1,1v1.5C71,66,71.4,66.5,72,66.5z"/><path xmlns="http://www.w3.org/2000/svg" d="M67.7,66.5c0.6,0,1-0.4,1-1V64c0-0.6-0.4-1-1-1s-1,0.4-1,1v1.5C66.7,66,67.2,66.5,67.7,66.5z"/><path xmlns="http://www.w3.org/2000/svg" d="M63.4,66.5c0.6,0,1-0.4,1-1V64c0-0.6-0.4-1-1-1s-1,0.4-1,1v1.5C62.4,66,62.9,66.5,63.4,66.5z"/><path xmlns="http://www.w3.org/2000/svg" d="M72,72.4c0.6,0,1-0.4,1-1V70c0-0.6-0.4-1-1-1s-1,0.4-1,1v1.5C71,72,71.4,72.4,72,72.4z"/><path xmlns="http://www.w3.org/2000/svg" d="M67.7,72.4c0.6,0,1-0.4,1-1V70c0-0.6-0.4-1-1-1s-1,0.4-1,1v1.5C66.7,72,67.2,72.4,67.7,72.4z"/><path xmlns="http://www.w3.org/2000/svg" d="M63.4,72.4c0.6,0,1-0.4,1-1V70c0-0.6-0.4-1-1-1s-1,0.4-1,1v1.5C62.4,72,62.9,72.4,63.4,72.4z"/><path xmlns="http://www.w3.org/2000/svg" d="M34.7,27.2c-0.6,0-1,0.4-1,1v1.4c0,0.6,0.4,1,1,1s1-0.4,1-1v-1.4C35.7,27.6,35.3,27.2,34.7,27.2z"/><path xmlns="http://www.w3.org/2000/svg" d="M30.5,27.2c-0.6,0-1,0.4-1,1v1.4c0,0.6,0.4,1,1,1s1-0.4,1-1v-1.4C31.5,27.6,31,27.2,30.5,27.2z"/><path xmlns="http://www.w3.org/2000/svg" d="M26.2,27.2c-0.6,0-1,0.4-1,1v1.4c0,0.6,0.4,1,1,1s1-0.4,1-1v-1.4C27.2,27.6,26.7,27.2,26.2,27.2z"/><path xmlns="http://www.w3.org/2000/svg" d="M34.7,33.1c-0.6,0-1,0.4-1,1v1.4c0,0.6,0.4,1,1,1s1-0.4,1-1v-1.4C35.7,33.6,35.3,33.1,34.7,33.1z"/><path xmlns="http://www.w3.org/2000/svg" d="M30.5,33.1c-0.6,0-1,0.4-1,1v1.4c0,0.6,0.4,1,1,1s1-0.4,1-1v-1.4C31.5,33.6,31,33.1,30.5,33.1z"/><path xmlns="http://www.w3.org/2000/svg" d="M26.2,33.1c-0.6,0-1,0.4-1,1v1.4c0,0.6,0.4,1,1,1s1-0.4,1-1v-1.4C27.2,33.6,26.7,33.1,26.2,33.1z"/><path xmlns="http://www.w3.org/2000/svg" d="M26.2,39c-0.6,0-1,0.4-1,1v1.4c0,0.6,0.4,1,1,1s1-0.4,1-1V40C27.2,39.5,26.7,39,26.2,39z"/><path xmlns="http://www.w3.org/2000/svg" d="M26.2,44.9c-0.6,0-1,0.4-1,1v1.4c0,0.6,0.4,1,1,1s1-0.4,1-1v-1.4C27.2,45.4,26.7,44.9,26.2,44.9z"/><path xmlns="http://www.w3.org/2000/svg" d="M26.2,50.9c-0.6,0-1,0.4-1,1v1.4c0,0.6,0.4,1,1,1s1-0.4,1-1v-1.4C27.2,51.3,26.7,50.9,26.2,50.9z"/><path xmlns="http://www.w3.org/2000/svg" d="M26.2,56.8c-0.6,0-1,0.4-1,1v1.4c0,0.6,0.4,1,1,1s1-0.4,1-1v-1.4C27.2,57.2,26.7,56.8,26.2,56.8z"/><path xmlns="http://www.w3.org/2000/svg" d="M26.2,62.6c-0.6,0-1,0.4-1,1V65c0,0.6,0.4,1,1,1s1-0.4,1-1v-1.4C27.2,63,26.7,62.6,26.2,62.6z"/><path xmlns="http://www.w3.org/2000/svg" d="M26.2,68.5c-0.6,0-1,0.4-1,1v1.4c0,0.6,0.4,1,1,1s1-0.4,1-1v-1.4C27.2,68.9,26.7,68.5,26.2,68.5z"/><path xmlns="http://www.w3.org/2000/svg" d="M26.2,74.4c-0.6,0-1,0.4-1,1v1.4c0,0.6,0.4,1,1,1s1-0.4,1-1v-1.4C27.2,74.9,26.7,74.4,26.2,74.4z"/><path xmlns="http://www.w3.org/2000/svg" d="M62.4,31.7c-0.6,0-1,0.4-1,1v1.1c0,0.6,0.4,1,1,1s1-0.4,1-1v-1.1C63.4,32.2,63,31.7,62.4,31.7z"/><path xmlns="http://www.w3.org/2000/svg" d="M58.1,31.7c-0.6,0-1,0.4-1,1v1.1c0,0.6,0.4,1,1,1s1-0.4,1-1v-1.1C59.1,32.2,58.7,31.7,58.1,31.7z"/><path xmlns="http://www.w3.org/2000/svg" d="M53.9,31.7c-0.6,0-1,0.4-1,1v1.1c0,0.6,0.4,1,1,1s1-0.4,1-1v-1.1C54.9,32.2,54.4,31.7,53.9,31.7z"/><path xmlns="http://www.w3.org/2000/svg" d="M62.4,36.3c-0.6,0-1,0.4-1,1v1.1c0,0.6,0.4,1,1,1s1-0.4,1-1v-1.1C63.4,36.8,63,36.3,62.4,36.3z"/><path xmlns="http://www.w3.org/2000/svg" d="M58.1,36.3c-0.6,0-1,0.4-1,1v1.1c0,0.6,0.4,1,1,1s1-0.4,1-1v-1.1C59.1,36.8,58.7,36.3,58.1,36.3z"/><path xmlns="http://www.w3.org/2000/svg" d="M53.9,36.3c-0.6,0-1,0.4-1,1v1.1c0,0.6,0.4,1,1,1s1-0.4,1-1v-1.1C54.9,36.8,54.4,36.3,53.9,36.3z"/><path xmlns="http://www.w3.org/2000/svg" d="M62.4,40.9c-0.6,0-1,0.4-1,1V43c0,0.6,0.4,1,1,1s1-0.4,1-1v-1.1C63.4,41.4,63,40.9,62.4,40.9z"/><path xmlns="http://www.w3.org/2000/svg" d="M58.1,40.9c-0.6,0-1,0.4-1,1V43c0,0.6,0.4,1,1,1s1-0.4,1-1v-1.1C59.1,41.4,58.7,40.9,58.1,40.9z"/><path xmlns="http://www.w3.org/2000/svg" d="M53.9,40.9c-0.6,0-1,0.4-1,1V43c0,0.6,0.4,1,1,1s1-0.4,1-1v-1.1C54.9,41.4,54.4,40.9,53.9,40.9z"/><path xmlns="http://www.w3.org/2000/svg" d="M53.9,46.1c-0.6,0-1,0.4-1,1v1.1c0,0.6,0.4,1,1,1s1-0.4,1-1v-1.1C54.9,46.5,54.4,46.1,53.9,46.1z"/><path xmlns="http://www.w3.org/2000/svg" d="M53.9,50.7c-0.6,0-1,0.4-1,1v1.1c0,0.6,0.4,1,1,1s1-0.4,1-1v-1.1C54.9,51.1,54.4,50.7,53.9,50.7z"/><path xmlns="http://www.w3.org/2000/svg" d="M53.9,55.3c-0.6,0-1,0.4-1,1v1.1c0,0.6,0.4,1,1,1s1-0.4,1-1v-1.1C54.9,55.7,54.4,55.3,53.9,55.3z"/><path xmlns="http://www.w3.org/2000/svg" d="M53.9,59.9c-0.6,0-1,0.4-1,1V62c0,0.6,0.4,1,1,1s1-0.4,1-1v-1.1C54.9,60.3,54.4,59.9,53.9,59.9z"/><path xmlns="http://www.w3.org/2000/svg" d="M53.9,64.5c-0.6,0-1,0.4-1,1v1.1c0,0.6,0.4,1,1,1s1-0.4,1-1v-1.1C54.9,64.9,54.4,64.5,53.9,64.5z"/><path xmlns="http://www.w3.org/2000/svg" d="M53.9,69.1c-0.6,0-1,0.4-1,1v1.1c0,0.6,0.4,1,1,1s1-0.4,1-1v-1.1C54.9,69.5,54.4,69.1,53.9,69.1z"/><path xmlns="http://www.w3.org/2000/svg" d="M53.9,73.7c-0.6,0-1,0.4-1,1v1.1c0,0.6,0.4,1,1,1s1-0.4,1-1v-1.1C54.9,74.1,54.4,73.7,53.9,73.7z"/><path xmlns="http://www.w3.org/2000/svg" d="M35.5,70h9.1c0.6,0,1-0.4,1-1s-0.4-1-1-1h-9.1c-0.6,0-1,0.4-1,1S34.9,70,35.5,70z"/><path xmlns="http://www.w3.org/2000/svg" d="M35.5,65.2h9.1c0.6,0,1-0.4,1-1s-0.4-1-1-1h-9.1c-0.6,0-1,0.4-1,1S34.9,65.2,35.5,65.2z"/><path xmlns="http://www.w3.org/2000/svg" d="M35.5,60.5h9.1c0.6,0,1-0.4,1-1s-0.4-1-1-1h-9.1c-0.6,0-1,0.4-1,1S34.9,60.5,35.5,60.5z"/><path xmlns="http://www.w3.org/2000/svg" d="M35.5,55.7h9.1c0.6,0,1-0.4,1-1s-0.4-1-1-1h-9.1c-0.6,0-1,0.4-1,1S34.9,55.7,35.5,55.7z"/><path xmlns="http://www.w3.org/2000/svg" d="M35.5,51h9.1c0.6,0,1-0.4,1-1s-0.4-1-1-1h-9.1c-0.6,0-1,0.4-1,1S34.9,51,35.5,51z"/><path xmlns="http://www.w3.org/2000/svg" d="M35.5,46.2h9.1c0.6,0,1-0.4,1-1s-0.4-1-1-1h-9.1c-0.6,0-1,0.4-1,1S34.9,46.2,35.5,46.2z"/><path xmlns="http://www.w3.org/2000/svg" d="M58.3,21.2h9.1c0.6,0,1-0.4,1-1s-0.4-1-1-1h-9.1c-0.6,0-1,0.4-1,1S57.8,21.2,58.3,21.2z"/><path xmlns="http://www.w3.org/2000/svg" d="M68.4,24.3c0-0.6-0.4-1-1-1h-9.1c-0.6,0-1,0.4-1,1s0.4,1,1,1h9.1C68,25.3,68.4,24.8,68.4,24.3z"/></g><g id="SvgjsG4343" featureKey="J3GnXt-0" transform="matrix(2.6845634834685375,0,0,2.6845634834685375,85.11409143905215,16.899329893449625)" fill="#000"><path d="M6.82 5.84 c1.29334 0 2.32 0.32 3.08 0.96 s1.14 1.5 1.14 2.58 c0 1.53334 -0.81334 2.57334 -2.44 3.12 l0 0.04 l0.02 0 c0.92 0.10666 1.65666 0.49 2.21 1.15 s0.83 1.45 0.83 2.37 c0 1.18666 -0.45666 2.14 -1.37 2.86 s-2.09 1.08 -3.53 1.08 l-4.94 0 l0 -14.16 l5 0 z M6.42 11.72 c0.8 0 1.43 -0.18334 1.89 -0.55 s0.69 -0.89 0.69 -1.57 c0 -0.64 -0.2 -1.14666 -0.6 -1.52 s-0.92666 -0.56 -1.58 -0.56 l-3.08 0 l0 4.2 l2.68 0 z M6.64 18.32 c0.94666 0 1.68 -0.22 2.2 -0.66 s0.78 -1.02 0.78 -1.74 c0 -0.8 -0.26334 -1.42 -0.79 -1.86 s-1.27 -0.66 -2.23 -0.66 l-2.86 0 l0 4.92 l2.9 0 z M18.54 10.28 c1.4 0 2.58668 0.483378 3.56002 1.45004 s1.46668 2.14332 1.48002 3.52998 c0 1.4 -0.48666 2.57334 -1.46 3.52 s-2.16668 1.43332 -3.58002 1.45998 c-1.38666 0 -2.56666 -0.48 -3.54 -1.44 s-1.47334 -2.14 -1.5 -3.54 c0 -1.37334 0.48334 -2.54 1.45 -3.5 s2.16332 -1.45334 3.58998 -1.48 z M15.42002 15.26004 c0 0.97334 0.28664 1.76334 0.85998 2.37 s1.32668 0.91666 2.26002 0.93 c0.94666 0 1.7 -0.30334 2.26 -0.91 s0.84666 -1.40332 0.86 -2.38998 c0 -0.97334 -0.28 -1.76334 -0.84 -2.37 s-1.32666 -0.91666 -2.3 -0.93 c-0.94666 0 -1.7 0.31334 -2.26 0.94 s-0.84 1.41332 -0.84 2.35998 z M26.72 10.52 l2.14 7.08 l0.04 0 l2.26 -7.08 l1.9 0 l2.4 7.08 l0.04 0 l2.04 -7.08 l1.9 0 l-3.06 9.48 l-1.82 0 l-2.5 -7.08 l-0.04 0 l-2.26 7.08 l-1.94 0 l-3.12 -9.48 l2.02 0 z M42.96 4.88 l0 15.12 l-1.8 0 l0 -15.12 l1.8 0 z M49.62 10.28 c1.2 0 2.15 0.273282 2.85 0.819942 s1.07 1.30666 1.11 2.28 l0 5.08 c0 0.48 0.02666 0.99334 0.08 1.54 l-1.6 0 c-0.04 -0.42666 -0.06 -0.90666 -0.06 -1.44 l-0.04 0 c-0.41334 0.61334 -0.89 1.04668 -1.43 1.30002 s-1.17 0.38 -1.89 0.38 c-0.97334 0 -1.76334 -0.26 -2.37 -0.78 s-0.91 -1.20666 -0.91 -2.06 c0 -1.08 0.45334 -1.89666 1.36 -2.45 s2.18666 -0.83 3.84 -0.83 l1.34 0 l0 -0.34 c0 -0.64 -0.21 -1.14334 -0.63 -1.51 s-0.97 -0.55 -1.65 -0.55 c-0.50666 0 -0.95 0.07666 -1.33 0.23 s-0.83 0.43668 -1.35 0.85002 l-1.08 -1.12 c1.02666 -0.90666 2.28 -1.37332 3.76 -1.39998 z M47.16 17.25994 c0 1.02666 0.68002 1.54 2.04002 1.54 c0.81334 0 1.46334 -0.24334 1.95 -0.73 s0.73666 -1.19 0.75 -2.11 l0 -0.52 l-1.02 0 c-1.17334 0 -2.08668 0.15 -2.74002 0.45 s-0.98 0.75666 -0.98 1.37 z M57.14 10.52 l2.82008 7.4 l0.04 0 l2.68 -7.4 l1.94 0 l-4.48 11.48 c-0.41334 1.10666 -0.86668 1.85 -1.36002 2.23 s-1.12668 0.57 -1.90002 0.57 c-0.65334 0 -1.18668 -0.08666 -1.60002 -0.26 l0.22 -1.62 c0.37334 0.13334 0.73334 0.2 1.08 0.2 c0.56 0 0.96334 -0.13666 1.21 -0.41 s0.46332 -0.66334 0.64998 -1.17 l0.56 -1.48 l-3.94 -9.54 l2.08 0 z M74.14 5.84 l0 12.36 l6.5 0 l0 1.8 l-8.42 0 l0 -14.16 l1.92 0 z M85.94 10.28 c1.2 0 2.15 0.273282 2.85 0.819942 s1.07 1.30666 1.11 2.28 l0 5.08 c0 0.48 0.02666 0.99334 0.08 1.54 l-1.6 0 c-0.04 -0.42666 -0.06 -0.90666 -0.06 -1.44 l-0.04 0 c-0.41334 0.61334 -0.89 1.04668 -1.43 1.30002 s-1.17 0.38 -1.89 0.38 c-0.97334 0 -1.76334 -0.26 -2.37 -0.78 s-0.91 -1.20666 -0.91 -2.06 c0 -1.08 0.45334 -1.89666 1.36 -2.45 s2.18666 -0.83 3.84 -0.83 l1.34 0 l0 -0.34 c0 -0.64 -0.21 -1.14334 -0.63 -1.51 s-0.97 -0.55 -1.65 -0.55 c-0.50666 0 -0.95 0.07666 -1.33 0.23 s-0.83 0.43668 -1.35 0.85002 l-1.08 -1.12 c1.02666 -0.90666 2.28 -1.37332 3.76 -1.39998 z M83.48 17.25994 c0 1.02666 0.68002 1.54 2.04002 1.54 c0.81334 0 1.46334 -0.24334 1.95 -0.73 s0.73666 -1.19 0.75 -2.11 l0 -0.52 l-1.02 0 c-1.17334 0 -2.08668 0.15 -2.74002 0.45 s-0.98 0.75666 -0.98 1.37 z M93.4 10.52 l2.14 7.08 l0.04 0 l2.26 -7.08 l1.9 0 l2.4 7.08 l0.04 0 l2.04 -7.08 l1.9 0 l-3.06 9.48 l-1.82 0 l-2.5 -7.08 l-0.04 0 l-2.26 7.08 l-1.94 0 l-3.12 -9.48 l2.02 0 z"/></g>
			</g>
		</svg>
	